<?xml version="1.0" standalone="no"?>
<!DOCTYPE svg PUBLIC "-//W3C//DTD SVG 20010904//EN"
 "http://www.w3.org/TR/2001/REC-SVG-20010904/DTD/svg10.dtd">
<svg version="1.0" xmlns="http://www.w3.org/2000/svg"
 width="4079.000000pt" height="4079.000000pt" viewBox="0 0 4079.000000 4079.000000"
 preserveAspectRatio="xMidYMid meet">
<metadata>
Created by potrace 1.11, written by Peter Selinger 2001-2013
</metadata>
<g transform="translate(0.000000,4079.000000) scale(0.100000,-0.100000)"
fill="#000000" stroke="none">
<path d="M19750 40409 c-3575 -111 -7012 -1124 -10050 -2962 -1150 -696 -2222
-1502 -3250 -2441 -240 -221 -969 -949 -1186 -1186 -1177 -1288 -2110 -2600
-2929 -4115 -125 -232 -415 -814 -534 -1075 -1397 -3043 -1992 -6355 -1746
-9710 243 -3295 1318 -6479 3132 -9278 1514 -2334 3537 -4364 5883 -5904 3007
-1974 6453 -3114 10070 -3333 873 -52 1920 -45 2805 20 2397 176 4759 774
6940 1758 324 146 326 147 318 161 -8 12 -582 772 -1312 1736 l-344 455 -67
175 c-122 319 -283 677 -489 1088 -164 327 -222 500 -380 1129 -120 478 -185
701 -256 888 -51 133 -154 363 -166 371 -12 7 -139 -48 -139 -61 0 -6 22 -62
50 -124 147 -331 269 -703 480 -1456 171 -610 270 -928 369 -1185 19 -49 19
-52 2 -35 -10 11 -281 367 -602 790 -1012 1337 -1793 2358 -1908 2498 -52 63
-441 337 -5586 3938 -3041 2129 -5554 3889 -5583 3911 -106 79 -190 216 -217
350 -15 71 -95 633 -95 661 0 12 13 12 93 0 326 -51 732 -201 1102 -407 407
-226 770 -480 1535 -1072 548 -424 670 -511 1175 -841 512 -334 794 -536 1124
-803 182 -148 328 -252 801 -570 476 -320 613 -417 815 -580 168 -136 296
-222 431 -288 156 -78 188 -86 325 -79 143 6 173 18 177 68 4 48 -9 57 -109
74 -116 21 -193 48 -333 119 -234 119 -439 265 -976 696 -419 336 -576 454
-830 623 -316 211 -607 425 -1295 950 -429 328 -805 608 -1070 798 -1242 888
-2170 1345 -2946 1453 l-47 7 -7 47 c-41 277 -170 901 -261 1259 -86 340 -143
536 -349 1193 -134 429 -200 703 -242 995 -28 204 -26 739 5 970 61 453 197
1023 358 1505 338 1008 906 2022 1645 2935 505 624 1044 1143 1316 1266 172
78 374 79 531 1 31 -16 5196 -3404 11477 -7530 8203 -5388 11440 -7519 11490
-7565 78 -71 133 -157 166 -256 26 -78 13 -97 140 200 1261 2951 1780 6154
1519 9369 -235 2885 -1101 5672 -2550 8201 -1132 1975 -2619 3767 -4375 5274
-2287 1962 -5001 3402 -7911 4199 -1980 542 -4070 789 -6134 725z"/>
<path d="M23635 14551 c-51 -23 -66 -41 -72 -89 -7 -51 11 -83 97 -181 37 -43
105 -125 150 -182 46 -57 144 -165 219 -239 208 -208 349 -292 491 -293 105
-1 170 45 170 118 0 14 -14 47 -31 75 -17 28 -39 77 -49 110 -35 115 -180 284
-379 443 -268 212 -473 295 -596 238z m675 -645 c61 -64 63 -68 35 -62 -16 4
-45 15 -64 24 -30 16 -33 22 -35 64 -1 26 -1 46 -1 45 1 -1 30 -33 65 -71z"/>
<path d="M28280 7490 c-26 -26 -26 -80 -1 -112 59 -74 293 -150 781 -252 118
-25 314 -66 435 -91 462 -97 804 -194 966 -275 190 -95 546 -359 879 -651 334
-293 626 -585 1260 -1259 178 -190 403 -425 499 -523 l175 -178 50 50 49 50
-119 125 c-65 68 -333 351 -595 628 -496 524 -862 892 -1084 1089 -770 685
-1445 1052 -2272 1233 -89 20 -262 61 -385 91 -273 68 -424 95 -534 95 -71 0
-87 -3 -104 -20z"/>
</g>
</svg>
